<svg xmlns="http://www.w3.org/2000/svg" viewBox="0 0 246 246"><defs><style>.cls-1{fill:#fefefe;}.cls-2{fill:#fdfdfd;}</style></defs><title>btn_edit</title><g id="Layer_2" data-name="Layer 2"><g id="Layer_1-2" data-name="Layer 1"><path class="cls-1" d="M135,246H108a113.21,113.21,0,0,1-50.44-17.36C27.83,209.85,9,183.23,1.43,148.76.58,144.89,1.13,140.84,0,137V108A109.07,109.07,0,0,1,12,67.21Q39.31,15.43,96.27,1.61C100.78.53,105.49,1.13,110,0h26a103.38,103.38,0,0,1,42.8,12c34.35,18.29,56.8,46,65.59,84.23,1,4.52.48,9.23,1.61,13.74v28a112.93,112.93,0,0,1-17.61,50.87c-18.81,29.47-45.33,48.24-79.63,55.7C144.24,245.55,139.53,245,135,246Z"/><path d="M184,77.93c-.15,6.38-2.11,11.37-6.18,15.44q-35.13,35.17-70.24,70.34a15.13,15.13,0,0,1-6,3.34q-15.73,5.56-31.45,11.14c-2.07.74-4.11,1.73-6.05-.08s-1.06-3.92-.32-6q5.77-16.17,11.45-32.37a15,15,0,0,1,3.67-5.81q34.84-34.74,69.64-69.52c6.57-6.53,14.78-8.11,22.9-4.6S183.42,69.87,184,77.93Z"/><path class="cls-1" d="M103.47,157.33c-5.63-5.79-10.81-11.41-16.35-16.66-2.56-2.43-.82-3.45.68-4.94l42-42c4.35-4.35,8.77-8.63,13-13.08,1.7-1.79,2.75-2.18,4.68-.11,4.53,4.86,9.37,9.44,14.11,14.11,1.28,1.26,2.15,2.2.36,4C142.53,118.05,123.2,137.51,103.47,157.33Z"/><path class="cls-2" d="M176.39,78.53c.06,4.91-2.55,8.39-5.93,11.58-1.45,1.37-2.22.66-3.24-.37q-7.53-7.62-15.13-15.18c-.92-.91-1.31-1.54-.35-2.88,3.24-4.54,10.13-7.1,15.5-5.51A13.18,13.18,0,0,1,176.39,78.53Z"/><path class="cls-2" d="M95.92,161l-23,8.21c2.89-8.2,5.55-15.71,8.25-23.36Z"/></g></g></svg>