<svg width="28" height="27" viewBox="0 0 28 27" fill="none" xmlns="http://www.w3.org/2000/svg">
<path d="M16.9988 0C10.9688 0 6.07879 4.26132 6.07879 9.53583C6.07879 14.8103 10.9688 19.0717 16.9988 19.0717C19.1888 19.0717 21.2288 18.5055 22.9388 17.5221C24.4988 18.4459 26.1488 18.4161 27.1088 18.2671C27.4088 18.2373 27.4388 17.8797 27.2288 17.7307C26.2688 17.1347 25.7888 16.2705 25.4888 15.4957C27.0188 13.8567 27.9188 11.7708 27.9188 9.50603C27.9488 4.26132 23.0288 0 16.9988 0ZM17.7488 13.38C17.7488 13.6184 17.5388 13.7971 17.3288 13.7971H16.2488C16.0088 13.7971 15.8288 13.5886 15.8288 13.38V12.6648C15.8288 12.4264 16.0388 12.2476 16.2488 12.2476H17.3288C17.5688 12.2476 17.7488 12.4562 17.7488 12.6648V13.38ZM19.4888 9.14843C19.1888 9.53583 18.8288 9.86362 18.3788 10.1318C18.1088 10.3106 17.9588 10.4596 17.8688 10.6384C17.8088 10.7874 17.7488 10.9364 17.7488 11.1152C17.7488 11.2642 17.5988 11.3834 17.4188 11.3834H16.0688C15.8888 11.3834 15.7388 11.2344 15.7388 11.0556C15.7688 10.698 15.8588 10.3702 16.0388 10.1616C16.2488 9.89342 16.5788 9.59542 17.0888 9.20803C17.3588 9.02923 17.5388 8.85044 17.6888 8.61204C17.8388 8.37365 17.9288 8.10545 17.9288 7.77766C17.9288 7.44986 17.8388 7.21147 17.6588 7.00287C17.4788 6.79428 17.2388 6.70488 16.9088 6.70488C16.6388 6.70488 16.4288 6.79428 16.2488 6.94327C16.1288 7.03267 16.0688 7.18167 16.0088 7.33067C15.9488 7.53926 15.7688 7.65846 15.5888 7.65846L14.3288 7.62866C14.1788 7.62866 14.0288 7.47966 14.0588 7.33067C14.1188 6.67508 14.3888 6.16849 14.8388 5.78109C15.3488 5.3937 16.0688 5.18511 16.9388 5.18511C17.8688 5.18511 18.6188 5.4235 19.1288 5.87049C19.6388 6.31748 19.9388 6.94327 19.9388 7.74786C19.9388 8.28425 19.7888 8.73124 19.4888 9.14843ZM2.50878 23.5118C1.24878 22.141 0.498784 20.4126 0.498784 18.5353C0.498784 15.8235 2.08878 13.38 4.48879 11.9794C5.71879 17.0751 10.8788 20.9192 16.9988 20.9192C17.4188 20.9192 17.8688 20.8894 18.2588 20.8596C17.1188 24.078 13.6688 26.4619 9.55879 26.4619C7.75879 26.4619 6.04879 26.0149 4.60879 25.1805C3.31878 25.9553 1.93878 25.9255 1.12878 25.8063C0.888784 25.7765 0.828784 25.4785 1.03878 25.3593C1.84878 24.8527 2.26878 24.1376 2.50878 23.5118Z" fill="#B9B9B9"/>
</svg>
