<svg xmlns="http://www.w3.org/2000/svg" viewBox="0 0 228.94 182.62"><title>add_buddy</title><g id="Layer_2" data-name="Layer 2"><g id="Layer_1-2" data-name="Layer 1"><path d="M117.36,0h1.44a3.45,3.45,0,0,0,.7.13A53.54,53.54,0,0,1,134.65,3c6.23,1.9,12.36,4.12,18.66,5.79,11.45,3,22.58,7.06,33.83,10.74a73.27,73.27,0,0,1,8.17,2.75,7.51,7.51,0,0,1,4.47,6.48,75.87,75.87,0,0,1,0,8.26c0,11.32,0,22.64,0,34,0,.84,0,1.68,0,2.52s-.35,1-1.11.75a34.68,34.68,0,0,0-4.78-1.57,2.64,2.64,0,0,1-2.44-2.74c-.35-3.2-1.83-4.21-5-3.73-2.88.45-5.76.89-8.64,1.36l-39.48,6.55c-12.89,2.14-25.78,4.25-38.66,6.41-3.58.6-7.21,1-10.73,1.9s-4.82,2.85-4,6.32A63.31,63.31,0,0,1,86,101.94a11.77,11.77,0,0,0,.19,2.38,2.08,2.08,0,0,0,2.34,1.92,17.1,17.1,0,0,0,3.57-.37L127.16,100c.41-.06.93-.4,1.23,0s-.16.82-.35,1.2A56.4,56.4,0,0,0,123.52,140c.24,1.05,0,1.46-1,1.61-2.06.29-4.1.64-6.15,1-8.63,1.45-17.26,2.85-25.88,4.36-4.57.8-5.61,2.27-5.15,6.82a76.74,76.74,0,0,1,.49,13c-.25,3.67,1.38,5.14,5,4.94a9.45,9.45,0,0,0,1.07-.1q21.57-3.62,43.13-7.27a1.89,1.89,0,0,1,1.91.64,58.07,58.07,0,0,0,6.88,6.33c.26.21.74.36.59.79s-.55.27-.85.32l-11,1.8c-13.64,2.22-27.29,4.44-40.84,7.14A56.12,56.12,0,0,1,63.45,180c-14.16-4.4-28.39-8.6-42.57-12.93-5.15-1.58-10.4-2.87-15.39-5a11,11,0,0,1-3.18-1.88c-1.77-1.59-1.92-3.3-.42-5.17a6.59,6.59,0,0,1,1.17-1.19,15.58,15.58,0,0,0,6.35-11.51c.52-4.75-.44-9.08-4.32-12.35a15.06,15.06,0,0,1-2.69-2.89,3.93,3.93,0,0,1,.2-5.36,12.74,12.74,0,0,1,2.64-2.44A8.72,8.72,0,0,0,8.84,114c1.58-7,.34-13.35-5-18.47C0,91.89,0,89.67,4.05,86.42A11.47,11.47,0,0,0,7.73,81.2a19.92,19.92,0,0,0,.69-10.52C7.68,66.76,6,63.42,2.58,61.13A9.13,9.13,0,0,1,0,58.32V56.16a11.45,11.45,0,0,1,2.88-3c8.06-6.31,7.94-19.68-.22-25.83a11.44,11.44,0,0,1-1.45-1.24,3.28,3.28,0,0,1-.83-3.53c.68-2.16,2.31-3.08,4.36-3.43,8.35-1.39,16.7-2.75,25-4.13,15.32-2.54,30.63-5.17,46-7.59C89.68,5.21,103.34,1.62,117.36,0ZM77.69,97.35a28.69,28.69,0,0,0-.27-5.14c-.39-2.74-1.15-5.31-3.27-7.28a16.7,16.7,0,0,0-6.38-3.46C51.94,76.41,36,71.73,20.1,66.89a5.94,5.94,0,0,0-2.37-.31A2,2,0,0,0,15.88,68a4.39,4.39,0,0,0-.1,2.13A20.34,20.34,0,0,1,16,76.72c-.32,2.35-1,4.59-1.57,6.88-.76,3.24.27,5.22,3.35,6.49.62.26,1.27.47,1.92.67l46.73,14a20.83,20.83,0,0,0,6.67,1.33,4,4,0,0,0,4.14-3.13A17.42,17.42,0,0,0,77.69,97.35ZM78,131.58c-.07-4.2-.37-7.69-1.72-11a9.48,9.48,0,0,0-6.39-5.82c-13.23-4-26.43-8.14-39.66-12.17-3.4-1-6.75-2.26-10.24-3a2.56,2.56,0,0,0-3.31,2.25,11.91,11.91,0,0,0-.13,3.1c.23,3.48.31,7-.85,10.32C14,120.05,15,122,19.87,123.48q21.18,6.4,42.34,12.82a83.47,83.47,0,0,0,9.7,2.7c3.21.56,5.09-.71,5.7-3.91A15.82,15.82,0,0,0,78,131.58Zm0-67.46a34.14,34.14,0,0,0-.25-5.48c-.37-4.67-2.5-8.11-7-9.84-1.3-.5-2.6-1-3.94-1.44Q46.21,41,25.69,34.69a41,41,0,0,0-5.88-1.64c-2.08-.31-3.15.56-3.19,2.63a9,9,0,0,0,.31,2.49,15,15,0,0,1,0,6.3c-.42,2.41-1.45,4.65-1.9,7.05a4,4,0,0,0,1.86,4.33,11.12,11.12,0,0,0,2.87,1.2Q40,63.17,60.31,69.27c4.24,1.27,8.4,2.88,12.82,3.52A3.49,3.49,0,0,0,77.44,70,19.55,19.55,0,0,0,77.9,64.12Zm0,100.07c-.15-2.11-.32-4.62-.52-7.12-.36-4.54-2.52-7.42-7.06-8.86-16.14-5.15-32.39-10-48.59-14.92a12,12,0,0,0-1.86-.45c-1.82-.25-2.74.57-2.76,2.39a9.52,9.52,0,0,0,.12,1.31,28.81,28.81,0,0,1,.17,7.65,49.72,49.72,0,0,1-1.82,7.43,3.5,3.5,0,0,0,1.73,4.2,11.74,11.74,0,0,0,3,1.19q24,7.13,48.05,14.22a17.92,17.92,0,0,0,5.28,1c2.19,0,3.23-.77,3.76-2.91A20.77,20.77,0,0,0,77.92,164.19Z"/><path d="M178.22,177.44a50.65,50.65,0,1,1,50.72-50.31A50.65,50.65,0,0,1,178.22,177.44ZM166.05,128.8h0c3,0,6.07,0,9.11,0,1,0,1.38.35,1.33,1.33s0,2,0,3c0,5,0,10.08,0,15.11,0,1.56.82,2.35,2.17,2.2,1.17-.13,1.72-.93,1.72-2.59q0-8.7,0-17.39c0-1.8,0-1.82,1.79-1.82H199a9.86,9.86,0,0,0,1.44,0,1.69,1.69,0,0,0,1.19-2.77,2.47,2.47,0,0,0-2.22-.94c-5.83,0-11.67,0-17.51,0-1.62,0-1.68-.06-1.69-1.69v-17a7.26,7.26,0,0,0-.05-1.32,1.85,1.85,0,0,0-3.62-.11,6.7,6.7,0,0,0-.09,1.55c0,5.56,0,11.12,0,16.68,0,1.93,0,1.93-1.91,1.93h-17c-1.76,0-2.61.67-2.62,1.95s.79,1.94,2.56,2Z"/></g></g></svg>