<svg xmlns="http://www.w3.org/2000/svg" viewBox="0 0 302.85 246.48"><title>add_buddy_1</title><g id="Layer_2" data-name="Layer 2"><g id="Layer_1-2" data-name="Layer 1"><path d="M206.37,246.48a50.42,50.42,0,0,1-10.12-1.8l-25.13-7.62-19.27-5.87a21.6,21.6,0,0,1-4-1.66c-3.05-1.64-3.32-3.93-.59-6.07a12.32,12.32,0,0,0,4.63-7.47c.94-4.6.08-8.6-3.69-11.79-3.26-2.74-3.18-5.06.23-7.6s3.93-5.73,3.72-9.44a16.09,16.09,0,0,0-1.45-5.78,10.84,10.84,0,0,0-2.67-3.65,11.19,11.19,0,0,1-1.87-2,3.11,3.11,0,0,1,.16-4,4.52,4.52,0,0,1,.83-.86c4.71-3.55,5-8.46,4.07-13.64a10,10,0,0,0-4.4-6.89l-.19-.15c-2.69-2.2-2.67-3.9.07-6.07,6-4.75,6.78-14.1,1.56-19.36a18.33,18.33,0,0,0-1.85-1.53,3.06,3.06,0,0,1-1.52-3,3.59,3.59,0,0,1,2.53-2.93,29.66,29.66,0,0,1,4.47-.87q15.36-2.53,30.75-5c15.85-2.54,31.71-5.11,47.41-8.5,7.45-1.6,14.59-.78,21.72,1.49,15.11,4.82,30.37,9.2,45.4,14.3,3,1,5.19,2.59,5.66,5.92V227c-.55,3.42-2.84,4.89-6,5.36-.4.06-.79.15-1.18.21-10.18,1.55-20.37,3-30.54,4.65q-19.94,3.13-39.8,6.64c-5.26.94-10.48,2.16-15.82,2.58Zm89.94-32.72c0-1.64,0-3.28,0-4.91-.07-2.82-1.09-3.72-3.84-3.27q-17,2.74-34,5.56-17.79,2.93-35.57,5.89a67.93,67.93,0,0,0-8.35,1.6,3,3,0,0,0-2.27,3,8.47,8.47,0,0,0,0,1.67,69.9,69.9,0,0,1,.43,10.53c0,3.12,1.36,4.36,4.41,3.85,10-1.67,20.08-3.38,30.12-5.06l35.57-5.91c3.35-.56,6.71-1,10-1.73a4.27,4.27,0,0,0,3.66-4.89C296.28,218,296.44,215.88,296.31,213.76Zm0-50.34h0c0-1.8.08-3.6,0-5.4-.2-3.3-1.27-4.13-4.54-3.69-.35,0-.72,0-1.07.1l-35,5.82c-10.95,1.82-21.91,3.61-32.86,5.45a75.84,75.84,0,0,0-7.78,1.38c-2.68.74-3.68,2.32-3.11,5a32,32,0,0,1,.77,7.49,21.73,21.73,0,0,0,.11,4.19c.31,1.82,1.07,2.38,2.92,2.07l30.49-5.08q17.73-3,35.46-5.88c3.7-.62,7.44-1,11.09-2,2.47-.63,3.45-1.91,3.54-4.46C296.36,166.78,296.31,165.1,296.31,163.42Zm-94.92,22.29c3.19,0,4.39-1.12,4.67-3.71a36.15,36.15,0,0,0,0-6.58c-.27-3.51-1.64-6.42-5.05-8a31.86,31.86,0,0,0-3.9-1.53l-24.2-7.39c-4.13-1.26-8.25-2.54-12.4-3.72-2.46-.7-3.55.13-3.19,2.5a23.35,23.35,0,0,1-1,10.17c-.89,3,0,4.71,2.92,5.82.38.14.76.25,1.15.37,11.41,3.41,22.81,6.85,34.23,10.23C197.09,184.61,199.52,185.62,201.39,185.71Zm4.93,19.55a22.08,22.08,0,0,0-.79-6.52,8.21,8.21,0,0,0-5.86-6.2c-10.41-3.11-20.78-6.36-31.18-9.54-2.59-.8-5.19-1.59-7.82-2.3a2,2,0,0,0-2.73,1.74,6.38,6.38,0,0,0-.15,2.14,20.72,20.72,0,0,1-.85,9.11c-1,2.93-.2,4.51,2.74,5.55.3.11.61.21.91.3q19,5.76,38,11.51a13.41,13.41,0,0,0,3.86.8c2.11,0,3.16-.83,3.63-2.89A15.84,15.84,0,0,0,206.32,205.26Zm0-52.74c0-1.47-.08-2.94-.21-4.42a8.37,8.37,0,0,0-5.61-7.65c-.67-.26-1.34-.54-2-.76-7.71-2.39-15.41-4.79-23.13-7.14-4.82-1.47-9.57-3.15-14.45-4.38-2.23-.57-3.06.22-3,2.52.06,1.2.48,2.34.5,3.55a21.41,21.41,0,0,1-1.39,6.9c-1,3.11-.21,4.65,2.88,5.69l.69.22c9.94,3,19.88,6,29.84,9,4,1.18,7.86,2.72,12,3.35,2,.31,3.16-.53,3.61-2.56A21.33,21.33,0,0,0,206.32,152.52Zm.06,79.71c-.15-1.91-.37-3.81-.43-5.72-.13-4.27-2.41-6.41-6.4-7.66-12.46-3.92-25-7.67-37.47-11.46-3.27-1-4.07-.31-3.6,3a21.72,21.72,0,0,1-1,10.27c-1,2.77-.3,4.09,2.47,5,.26.1.53.18.79.26l38.49,11.39a13.5,13.5,0,0,0,4.24.69,2.32,2.32,0,0,0,2.33-1.7A13.19,13.19,0,0,0,206.38,232.23Z"/><path d="M120.93,0a75.71,75.71,0,0,1,7.81,1.13c22.2,5.35,37.26,18.47,42.64,41,3.92,16.46-.22,31.52-11.14,44.47a53.9,53.9,0,0,1-35.82,19.2c-17.52,2.11-33.11-2.61-46.22-14.63A50.12,50.12,0,0,1,61.68,58.64C60.12,43.85,64.34,30.7,74,19.42,82.83,9.12,94.13,3.09,107.44.73c1.92-.34,3.87-.49,5.81-.73Z"/><path d="M47.74,138.15c26-.34,47.87,20.87,47.83,47.83A47.79,47.79,0,1,1,0,185.7,47.34,47.34,0,0,1,47.74,138.15ZM61.91,190.5h7.91a4.5,4.5,0,0,0,3.84-6.82,5.33,5.33,0,0,0-5-2.62c-4.8,0-9.6,0-14.4,0-1.73,0-1.74,0-1.74-1.72,0-5.08,0-10.15,0-15.23a4.66,4.66,0,0,0-9.25-.78,11.52,11.52,0,0,0-.18,2c0,4.75,0,9.51,0,14.27,0,1.08-.31,1.47-1.43,1.45-4.44,0-8.88,0-13.32,0a17.38,17.38,0,0,0-3,.27,4.64,4.64,0,0,0-3.73,5.51c.5,2.49,2.3,3.88,5.13,3.89,5,0,9.92,0,14.87,0,1.15,0,1.62.4,1.61,1.49,0,.44,0,.88,0,1.32,0,4.76,0,9.51,0,14.27A4.52,4.52,0,0,0,47,212.31a4.65,4.65,0,0,0,5.43-3.43,8.81,8.81,0,0,0,.24-2.5V192.11c0-1.56.06-1.6,1.64-1.61Z"/><path d="M116.59,223.69c-4.2,0-8.4.06-12.6,0-5.11-.09-10.22-.29-15.33-.48-.64,0-1.6.17-1.83-.45s.66-1,1.07-1.46a51.82,51.82,0,0,0,12.8-27.8c2.12-16.14-2-30.55-12.66-42.89A51.71,51.71,0,0,0,56.27,133a53.16,53.16,0,0,0-10.62-.67c-.5,0-1,0-.6-.66,2.34-3.61,4.44-7.42,8.36-9.71a21.52,21.52,0,0,1,9.16-2.53c6.2-.55,12.41-1.11,18.61-1.62,2.95-.24,5.9-.41,8.86-.53q9.27-.37,18.57-.58c5-.11,10-.11,15-.08s9.91.28,14.86.39c1,0,1.17.35,1.1,1.31-.33,4.09.78,7.73,4.3,10.08,4,2.64,3.51,8.7.31,11.37A19.37,19.37,0,0,0,141.1,143a7,7,0,0,0-.26,8.88,24.39,24.39,0,0,0,3,3.54c3.4,3.42,3.28,7.56-.28,10.8A15.24,15.24,0,0,0,140,171c-1.38,3-.69,5.71,1.1,8.24a25.17,25.17,0,0,0,2.62,3.12c2.71,2.77,3,8.65-.72,11.16a11.07,11.07,0,0,0-3.77,4.28,6.24,6.24,0,0,0-.06,5.66,16.92,16.92,0,0,0,4.09,5.12,8.4,8.4,0,0,1,2.83,5.15,4.07,4.07,0,0,1-1.72,4.19,10.2,10.2,0,0,0-3.86,4.63c-.28.71-.85.73-1.46.77-6,.4-12,.44-18,.48h-4.43Z"/></g></g></svg>