<svg xmlns="http://www.w3.org/2000/svg" viewBox="0 0 177 177"><title>img_upload_1</title><g id="Layer_2" data-name="Layer 2"><g id="Layer_1-2" data-name="Layer 1"><circle cx="88.5" cy="88.5" r="88.5" fill="#999"/><path d="M133.18,46.2a10.7,10.7,0,0,0-3.91-.92c-15.74-.06-31.47,0-47.21,0-.3,0-.59,0-1,.09,3.95,11.91,1.9,22.47-7.79,30.58s-20.37,8.2-31.52,2.41c0,.6-.08,1.12-.08,1.64q0,26.7,0,53.4c0,6.24,3.36,9.6,9.61,9.6h76.18c6.12,0,8.37-1.6,10.34-7.33V52C136.91,49.56,135.76,47.26,133.18,46.2ZM110.09,60.64A12.19,12.19,0,1,1,110.18,85c-7,0-12.25-5.42-12.26-12.68C97.91,66.09,103.55,60.68,110.09,60.64Zm15.4,66.18a2.3,2.3,0,0,1-1.76.73l-8.48,0q-12.73,0-25.46,0H56.44c-2.42,0-2.81-.65-1.63-2.79Q64.88,106.52,75,88.26a1.1,1.1,0,0,0,.15-.26c.82-2.19,2.74-2,3.89-.2,3.62,5.73,7.45,11.33,11.21,17,2.86,4.3,7.42,4.73,11.1,1.07.71-.71,1.4-1.45,2.15-2.12,2-1.73,4.35-1.61,6,.45q8,10.32,15.83,20.74A2.14,2.14,0,0,1,125.49,126.82Z" fill="#fff"/><path d="M78.08,53.46A21.43,21.43,0,1,0,56.65,74.88,21.42,21.42,0,0,0,78.08,53.46ZM54.44,51.12l-4.59,5.15-3.23-2.8,10-10.69L67,53.45,64,56.5l-5-5.52V64.14H54.84V51.31Z" fill="#fff"/></g></g></svg>