<svg width="20" height="24" viewBox="0 0 20 24" fill="none" xmlns="http://www.w3.org/2000/svg">
<path d="M9.7481 10.9976C13.0243 10.9976 15.6802 8.5357 15.6802 5.4988C15.6802 2.46189 13.0243 0 9.7481 0C6.47191 0 3.81603 2.46189 3.81603 5.4988C3.81603 8.5357 6.47191 10.9976 9.7481 10.9976Z" fill="#7D2E2E"/>
<path d="M16.9311 13.1734C16.6487 12.7382 16.1644 12.4613 15.6398 12.4218C13.6625 12.224 11.6851 12.1053 9.70775 12.1053C7.77075 12.1053 5.75304 12.224 3.77568 12.4218C3.25108 12.4613 2.76683 12.7778 2.48435 13.1734C0.668409 15.9426 -0.0579665 18.1975 0.0227419 21.0458C0.0227419 21.837 0.708763 22.5095 1.5562 22.6282C4.30029 22.9446 7.04437 23.1029 9.7481 23.1029C12.4518 23.1029 15.1959 22.9446 17.94 22.6282C18.7874 22.5095 19.4331 21.837 19.4735 21.0458C19.5138 18.1975 18.7874 15.9426 16.9311 13.1734Z" fill="#7D2E2E"/>
</svg>
