<svg xmlns="http://www.w3.org/2000/svg" viewBox="0 0 278.55 246.15"><title>nav_buddies</title><g id="Layer_2" data-name="Layer 2"><g id="Layer_1-2" data-name="Layer 1"><path d="M118.85,208.47c-6.44-5.81-6.33-10.61.34-15.72,2.93-2.24,3-7.66.06-10.57-5.91-5.93-5.84-10.81.25-16.36,3.31-3,3.33-7.31,0-10.44-6.2-5.93-6.09-10.22.43-15.93,3-2.6,3.42-8.21.06-10.57-4.37-3.08-5.26-6.95-4.74-11.7h0a528.39,528.39,0,0,0-78.75,2.55,16.64,16.64,0,0,0-12.51,7.33C8.64,149.58-.87,174,.06,201.83c.32,9.59,6,16,15.37,17.14a659.2,659.2,0,0,0,89.28,4.38c2,0,7.39,0,11.2-.46a9.86,9.86,0,0,1,4.14-5.26C122.92,215.68,121.94,211.24,118.85,208.47Z"/><path d="M278.46,176c0-16.66-.09-33.32.06-50,0-4-1.45-6.07-5.24-7.24-11.15-3.41-22.09-7.57-33.35-10.5-10.51-2.73-20.11-8.23-32.23-5.71-27,5.62-54.42,9.52-81.67,14.13-2,.33-4.14.45-5,2.71-1,2.59,1.39,3.4,2.79,4.69,5.62,5.23,5,15.38-1.15,20-3.51,2.6-2.11,4.43.75,6.49,5.31,3.82,5.73,15.59.58,19.49-3.66,2.77-3.14,4.7,0,7.43,4.88,4.24,5.82,15,1.09,18.51-5,3.67-3.73,5.53.1,9,4.82,4.32,3.61,14.28-1.6,18.16-3.11,2.31-3,4.58.46,6.31a36,36,0,0,0,5.6,2.11c13.86,4.21,27.75,8.33,41.6,12.59a39.88,39.88,0,0,0,19.94,1.3c26.82-5,53.83-9.16,80.82-13.22,5.22-.78,6.57-2.87,6.5-7.73C278.33,208.33,278.46,192.17,278.46,176ZM132.74,140.85c.95-2.81,1.81-5.81,1.09-8.83-1.08-4.48.93-4.88,4.5-3.77,10.33,3.23,20.68,6.41,31,9.61.8.24,1.59.49,2.39.72,9.05,2.62,10.51,4.57,10.59,14.09.06,6.9-1.29,7.91-7.94,5.9-12.76-3.86-25.48-7.83-38.28-11.56C132.63,146,131.55,144.4,132.74,140.85ZM132,167.09c.88-3,1.58-6.13,1-9.34-.68-3.71,1.27-3.92,4-3.08l31.94,9.7c1,.29,1.89.61,2.85.9,8.62,2.58,10.32,4.9,10.36,14.14,0,6-1.9,7.46-7.69,5.75-12.89-3.83-25.75-7.79-38.66-11.56C132.29,172.57,130.88,170.89,132,167.09Zm.75,25.94c1.15-3,.74-6.23.7-9.38,0-3,1.32-3.87,4.09-3,13,4,26.07,7.89,39.05,12,3.87,1.22,5.72,5.8,5.74,12.7,0,6.18-1.7,7.64-7.51,5.91-12.89-3.84-25.71-7.91-38.62-11.71C132.54,198.46,131.31,196.75,132.75,193Zm41.9,44.31c-12.79-3.74-25.55-7.61-38.34-11.35-2.87-.83-4.44-2.13-3.27-5.35a21,21,0,0,0,1-10.83c-.48-2.89.75-3.68,3.39-2.87,13.22,4.05,26.51,7.9,39.64,12.23,5.94,2,4.44,7.83,5.25,11.56C182.34,238.3,181.16,239.24,174.65,237.34Zm17.91-71c24.48-4,48.93-8.14,73.41-12.15,6-1,6.44-.3,6.46,9.15s0,9.15-10.32,10.81c-22.52,3.63-45,7.46-67.49,11.23-6.25,1-6.29,1-6.28-5.5a27.19,27.19,0,0,0-.59-6.94C186.59,168.58,188.45,167.05,192.56,166.39Zm75,58.93q-37.22,6-74.37,12.38c-3.48.59-5-.66-4.87-4.22a50.8,50.8,0,0,0-.1-7c-.76-7.84-.82-7.89,7.1-9.21q34.73-5.78,69.46-11.47c7.49-1.23,7.57-1.16,7.63,6.43,0,.83,0,1.67,0,2.5,0,1.5-.1,3,0,4.49C272.69,222.83,271.33,224.71,267.55,225.32Z"/><ellipse cx="92.85" cy="53" rx="55.5" ry="53"/></g></g></svg>