<svg xmlns="http://www.w3.org/2000/svg" viewBox="0 0 942 838.19"><defs><style>.cls-1{fill:#b8b8b8;}.cls-2{fill:#fefefe;}</style></defs><title>nav_buddies</title><g id="Layer_2" data-name="Layer 2"><g id="Layer_1-2" data-name="Layer 1"><path class="cls-1" d="M.87,649.91c2.87-50.7,16.21-98.64,38.18-144.29A617.37,617.37,0,0,1,79.36,435c11.84-18.07,29-26.18,50.3-28,54.09-4.64,108.2-8.7,162.52-9.23,33-.32,65.94-.41,98.88,1.38,1.76,1,1.87,2.51,1.66,4.3-.46,3.81-.1,7.66-.27,11.48-.35,7.85,3.17,13.73,9.84,17.23,16.85,8.83,15.31,26.2,11.76,39.3a4,4,0,0,1-2.18,2.6c-3.11,1.59-5.86,3.82-9.1,5.21-6.71,2.89-9.73,8.32-10.2,15.33-.3,4.32,0,8.66-.1,13-.08,6.55,2.79,11.5,8,15.27a42.07,42.07,0,0,0,6.79,4.21c4.42,2.08,6.48,5.46,6.84,10.16.49,6.48.77,13-.22,19.42a9.61,9.61,0,0,1-6,8c-3.41,1.45-6,4.14-8.92,6.31-12.76,9.43-11.75,35.62,4.6,44.75,6.68,3.73,9.09,9,9.62,15.64s1.1,13.28-1.37,19.77c-1.11,2.9-2.67,4.89-5.82,5.48-11.42,2.15-17.12,10.18-16.52,22.54.16,3.33-.18,6.67.37,10,.92,5.55,3.46,10,8.56,12.8a26.68,26.68,0,0,1,3,1.84c11.21,8.08,15.56,20.87,11.6,34.21a7.72,7.72,0,0,1-4.3,5.23c-7.6,3.34-14.26,7.84-18.74,15.08a3,3,0,0,1-2.09,1.25,36.81,36.81,0,0,1-6.93.95c-27.64-.56-55.26,2.07-82.88.92-25.78-1.07-51.6-.59-77.35-2-33.38-1.81-66.77-3.62-100.08-6.63-23.87-2.15-47.76-4.13-71.51-7.37C31,742.89,16.76,733.64,6.23,718.71,1.85,712.5,1.29,705.14,0,698V660C1.27,656.72-.2,653.21.87,649.91Z"/><path class="cls-1" d="M332,0c5.44,2.19,11.33,1.81,17,3,72.32,14.81,124.74,54.43,148.11,125.55,20.45,62.26,6.61,119.58-36.82,168.33-41.61,46.72-95.45,67.72-157.39,63.68-74.26-4.83-130.83-39.79-164-107.69C108.75,191,120.71,116.37,167.38,64.67,201.5,26.87,244.31,6.2,294.77,1c1.13-.12,2.38.11,3.23-.95Z"/><path class="cls-1" d="M942,597.5V774c0,8.67-2.5,10.83-11,12.1-21.41,3.22-42.75,6.9-64.12,10.41-63.44,10.41-126.86,21-190.35,31.13-17.43,2.79-34.92,4.72-52,9.67-6.36,1.84-13.28.6-20.32-1.6-12.36-3.85-24.86-7.44-37.29-11.17-39.25-11.8-78.45-23.77-117.71-35.56-11.17-3.35-22.45-6.3-33.14-11.1-7-3.15-8.15-5-6.94-13.87.74-5.42,5-6.52,9.55-6.91a9.06,9.06,0,0,0,8.08-5.76c7-15.81,7.31-32,2.14-48.27-2.23-7-8.23-10.64-14.3-14-2.94-1.6-5.65-3.05-5.66-7.33,0-8.74-.27-8.79,8.12-11.35a14.64,14.64,0,0,0,8.59-6.39,45,45,0,0,0,6.68-29.6,110.48,110.48,0,0,0-3.85-19.08c-2-7-6-12.08-13-14.8-5.62-2.18-7.5-6.12-6.32-13.07a9.54,9.54,0,0,1,8.71-8.31c4.72-.64,7.46-3.34,9-7.58,5.8-15.94,5.31-32.05,1-48.18-1.8-6.74-7.25-10.06-13-13-6.78-3.41-8.8-7.6-6.64-14.83,1.22-4.09,5.09-6,8.79-6.45,5.51-.67,7.94-3.62,9.77-8.44a73.44,73.44,0,0,0,4.52-35.79c-1.43-11.56-7.75-19.53-17.24-25.54-6.18-3.91-7.47-6.29-5.88-12.5,1.34-5.25,5.72-7.81,10.63-8.67,29.35-5.14,58.71-10.23,88.12-15q87.54-14.26,174.9-29.64c13.26-2.36,26.9-2.45,39.89-6.49,1.75-.54,3.71-.79,5.18-1.77,4.12-2.77,8.64-1.63,11.72.49,5.47,3.76,11.64,4.89,17.62,6.64,58.86,17.25,117.11,36.41,175.35,55.6,8.88,2.92,10.37,5.08,10.37,14.48Z"/><path class="cls-2" d="M921.11,728.8c0,7.5-.05,15,0,22.49.06,8.05-2.47,11.29-10.35,12.6q-33.51,5.57-67,11-65.31,10.76-130.62,21.53-34.74,5.71-69.51,11.29c-6.24,1-7.52-.31-7.7-6.81-.3-10.79,2.52-21.55.13-32.36-1.44-6.5-2.51-13.09-4.14-19.54-1.13-4.46.25-6.53,4.71-7.28,25-4.17,49.91-8.5,74.87-12.68Q779.22,717.74,847,706.53q30.56-5.07,61.13-10a29.78,29.78,0,0,1,6.47-.29c4.34.26,6.62,2.51,6.57,7.08-.1,8.49,0,17,0,25.48Z"/><path class="cls-2" d="M921,545.09c.19,9.38,0,17.34.75,25.34,1.22,12.42-3.18,18-15.44,19.27-38,3.9-75.35,11.55-113,17.63-48.33,7.8-96.5,16.55-144.89,23.95-1.48.23-2.94.62-4.4.93-7.77,1.65-10.11-.54-8.56-8.19a77.84,77.84,0,0,0,1.56-14.37c.16-10.44-2-20.52-4.28-30.6-2-8.85-.9-10.61,8.14-11.91,64.46-9.26,128.45-21.35,192.71-31.76,25.81-4.18,51.58-8.58,77.37-12.87,7.89-1.31,9.91.39,10,8.48C921.09,536.16,921,541.32,921,545.09Z"/><path class="cls-2" d="M615,611.07c-.09,4.64.31,9.32-1,13.91-1.74,6.28-5,8.51-11.45,7.18-18.14-3.77-35.57-10.09-53.3-15.32-31.32-9.23-62.54-18.8-93.8-28.23l-1.91-.59c-11-3.42-12-5.36-8.36-16.16a84.77,84.77,0,0,0,3.36-40.41,31.39,31.39,0,0,1-.48-4c-.13-4.68,1.11-5.73,5.67-4.36,13.07,3.94,26.09,8.08,39.17,12,34.44,10.42,68.84,21,103.4,31,8.55,2.49,13.45,6.78,14.94,15.72C612.9,591.59,615.58,601.11,615,611.07Z"/><path class="cls-2" d="M616.06,697.93a52.77,52.77,0,0,1-1.41,16.17c-1.58,5.73-4.55,7.6-10.42,6.45-16.39-3.21-32.07-9-48-13.74-33.67-10.07-67.24-20.47-100.85-30.74-1.27-.38-2.55-.77-3.79-1.25-6.4-2.48-7.68-4.66-5.3-11.05,4.26-11.39,6.57-23,5.77-35.22-.26-4-1.19-7.89-1.74-11.85-.63-4.54,1.12-6.23,5.64-5.61a19.06,19.06,0,0,1,3.37.9c45,15.19,90.78,27.78,136.22,41.51,8.85,2.67,14.4,7.44,16.45,16.67S616.65,688.6,616.06,697.93Z"/><path class="cls-2" d="M616.07,519.53A66,66,0,0,1,615,535.07c-1.76,8.25-5.8,10.73-14.18,8.23-5.9-1.76-11.66-4-17.54-5.77Q519,517.9,454.75,498.34a42.85,42.85,0,0,1-5.1-2c-4-1.83-5.23-4.74-3.66-9a122.58,122.58,0,0,0,5.92-20.61c1.69-9.18.93-18.2-1.17-27.22-1.38-5.91.4-7.54,6.18-5.7q70.66,22.51,141.86,43.23c7.27,2.13,11.58,6.53,13.12,14.06C613.86,500.74,616.74,510.19,616.07,519.53Z"/><path class="cls-2" d="M616.07,786.59c-.11,5.13.35,10.28-1.16,15.37s-4.33,7.39-9.78,7.22c-7-.22-13.27-3.09-19.78-5Q519,784.6,452.72,764.69c-5.59-1.66-6.82-3.86-4.84-9.74,3.63-10.78,6.95-21.62,6.08-33.18-.4-5.3-1.53-10.54-1.92-15.84s1.53-6.57,6.64-5q49.71,15.11,99.44,30.14c14.18,4.31,28.33,8.73,42.54,12.93,6.23,1.84,9.81,5.63,11.21,12C614.07,766.1,616.71,776.11,616.07,786.59Z"/></g></g></svg>