<svg width="28" height="27" viewBox="0 0 28 27" fill="none" xmlns="http://www.w3.org/2000/svg">
<path d="M27.1575 10.0487C27.0283 9.57441 26.7232 9.17743 26.2941 8.93512L18.1256 4.26414C17.6965 4.02183 17.2002 3.95481 16.7245 4.0837C16.2489 4.21259 15.8508 4.51677 15.6078 4.94468L14.517 6.84194V19.2618C14.517 20.5919 13.4313 21.6746 12.0974 21.6746H7.68745C7.7805 21.7571 7.87356 21.8344 7.98213 21.8963L16.1507 26.5673C16.5746 26.8096 17.0709 26.8766 17.5466 26.7477C18.0222 26.6188 18.4151 26.3146 18.6633 25.8867L26.9766 11.4407C27.2195 11.018 27.2816 10.523 27.1575 10.0487Z" fill="#B9B9B9"/>
<path d="M13.162 18.488V1.83542C13.162 0.82492 12.3348 2.40361e-05 11.3214 2.40361e-05H1.90178C0.888473 -0.00513156 0.0612793 0.819764 0.0612793 1.83026V18.4828C0.0612793 19.4985 0.888473 20.3182 1.90178 20.3182H11.3214C12.3348 20.3234 13.162 19.4985 13.162 18.488Z" fill="#B9B9B9"/>
</svg>
